<svg xmlns="http://www.w3.org/2000/svg" xmlns:se="http://svg-edit.googlecode.com" xmlns:xlink="http://www.w3.org/1999/xlink" xmlns:dc="http://purl.org/dc/elements/1.1/" xmlns:cc="http://creativecommons.org/ns#" xmlns:rdf="http://www.w3.org/1999/02/22-rdf-syntax-ns#" xmlns:inkscape="http://www.inkscape.org/namespaces/inkscape" width="777" height="480">                                    <title>my vector image</title>                                    <!-- Created with Vector Paint - http://www.vectorpaint.yaks.com/ https://chrome.google.com/webstore/detail/hnbpdiengicdefcjecjbnjnoifekhgdo -->                                    <rect id="backgroundrect" width="100%" height="100%" x="0" y="0" fill="#FFFFFF" stroke="none"/>                                <g class="currentLayer" style=""><title>Layer 1</title><path fill="#000000" stroke="#222222" stroke-width="2" stroke-linejoin="round" stroke-dashoffset="" fill-rule="nonzero" marker-start="" marker-mid="" marker-end="" id="svg_2" d="M483.00685344764634,284.4946704052215 L432.685723527619,234.1735404852006 C439.46488220336767,222.99499029390242 443.4405763016594,209.91686334863925 443.44763792539015,195.89247883824652 C443.4405763016594,154.98449320441688 410.31449989772625,121.85135517680195 369.4276991347144,121.83723192958374 C328.53383674822845,121.85135517680195 295.3936370969172,154.98449320441688 295.3936370969172,195.88541721459876 C295.3936370969172,236.76515635396257 328.53383674822845,269.89829438153777 369.4276991347144,269.89829438153777 C383.45914526879386,269.89829438153777 396.5372722140565,265.9226002831691 407.7158224053242,259.1434416074634 L458.05107557263113,309.47163315109253 L483.00685344764634,284.4946704052215 zM323.63306995553495,195.88541721459876 C323.67543969725085,170.5906814058156 344.1329633259376,150.140219400703 369.4206375111475,150.08372641173148 C394.694188449069,150.140219400703 415.1658353250415,170.5906814058156 415.208205066772,195.88541721459876 C415.1587737013968,221.16602977617185 394.694188449069,241.61649178128442 369.4206375111475,241.67298477021706 C344.1329633259376,241.61649178128442 323.67543969725085,221.16602977617185 323.63306995553495,195.88541721459876 z" style="color: rgb(0, 0, 0);" class="" fill-opacity="1"/></g></svg>